<svg id="Group_147" data-name="Group 147" xmlns="http://www.w3.org/2000/svg" xmlns:xlink="http://www.w3.org/1999/xlink" width="141" height="142" viewBox="0 0 141 142">
  <defs>
    <clipPath id="clip-path">
      <ellipse id="Ellipse_24" data-name="Ellipse 24" cx="70.5" cy="71" rx="70.5" ry="71" fill="#6768ab"/>
    </clipPath>
    <clipPath id="clip-path-2">
      <rect id="Rectangle_13" data-name="Rectangle 13" width="107.009" height="93.64" fill="#fff"/>
    </clipPath>
  </defs>
  <ellipse id="Ellipse_18" data-name="Ellipse 18" cx="70.5" cy="71" rx="70.5" ry="71" fill="#6768ab"/>
  <g id="Mask_Group_3" data-name="Mask Group 3" clip-path="url(#clip-path)">
    <g id="Group_140" data-name="Group 140" transform="translate(17.117 28.875)">
      <g id="Group_139" data-name="Group 139" clip-path="url(#clip-path-2)">
        <path id="Path_473" data-name="Path 473" d="M259.491,48.09a26.553,26.553,0,0,1-2.051,4.6,9.27,9.27,0,0,1-8.09,3.961q-7.1.01-14.208,0h-1.263c.8,2.193,1.543,4.241,2.294,6.285Q240.9,75.8,245.611,88.664a5.358,5.358,0,0,1,.384,2.318,3.09,3.09,0,0,1-5.871.824c-.785-1.853-1.447-3.758-2.142-5.648q-5.245-14.277-10.458-28.566c-.306-.843-.776-.93-1.537-.966-.834-.039-1.126.329-1.38,1.031q-5.966,16.51-11.974,33a9.07,9.07,0,0,1-.538,1.24,3.1,3.1,0,0,1-5.719-2.351c1.184-3.448,2.449-6.868,3.694-10.3q3.9-10.722,7.8-21.44c.127-.348.21-.713.342-1.169h-4.2c.1-1.764.174-3.458.3-5.148a3.041,3.041,0,0,1,.369-1.067c2.071-4.169,4.163-8.328,6.228-12.5a9.291,9.291,0,0,0-.761-10.223c-3.647-5.055-11.883-4.876-15.146.424-1.508,2.449-2.684,5.1-4.011,7.663l-.548,1.059c-2.429-1.208-4.8-2.367-7.141-3.581a1.172,1.172,0,0,1-.5-.88c-.015-7.662-.09-15.326.048-22.986A9.632,9.632,0,0,1,202.441.03c2.437-.057,4.875-.014,7.313-.014q19.745,0,39.491,0A9.647,9.647,0,0,1,258.5,5.642a21.6,21.6,0,0,1,.995,2.94ZM226.152,19.683c5.535,0,11.07.01,16.605-.005a3.06,3.06,0,0,0,3.194-3.685c-.281-1.638-1.548-2.533-3.652-2.534q-16.135-.008-32.271,0a7.533,7.533,0,0,0-1.246.095,2.876,2.876,0,0,0-2.382,2.078,3.058,3.058,0,0,0,3.042,4.042c5.57.021,11.14.007,16.71.008m9.791,17.308c-2.159,0-4.319-.007-6.478.005a5.627,5.627,0,0,0-1.445.121,3.105,3.105,0,0,0,.925,6.087c1.809.068,3.622.022,5.433.022,2.786,0,5.573.041,8.359-.018a3.116,3.116,0,1,0-.106-6.215c-2.229-.009-4.458,0-6.687,0m-.174-5.566c2.3,0,4.595.017,6.892-.005a3.094,3.094,0,1,0,.038-6.166q-6.788-.032-13.576,0a3.092,3.092,0,1,0-.038,6.167c2.228.024,4.456.005,6.683.006" transform="translate(-152.482 0)" fill="#fff"/>
        <path id="Path_474" data-name="Path 474" d="M0,74.85c.127-.528.271-1.053.38-1.585A19.81,19.81,0,0,1,16.949,57.474c.443-.07.882-.164,1.55-.29A13.8,13.8,0,0,1,9.352,52.2,13.552,13.552,0,0,1,6.3,42.393a13.671,13.671,0,0,1,26.715-2.778,13.379,13.379,0,0,1-1.491,11.121,14.134,14.134,0,0,1-9.26,6.433c4.03-.14,7.6,1.242,11.076,2.986q8.251,4.136,16.521,8.232c.274.137.553.264.893.426.215-.4.418-.756.6-1.122q2.963-5.918,5.917-11.841a3.151,3.151,0,1,1,5.769,2.528c-.791,1.738-1.7,3.425-2.551,5.134-1.6,3.2-3.221,6.393-4.78,9.614A2.871,2.871,0,0,0,55.46,74.8a8.566,8.566,0,0,1-7.424,9.907A9.64,9.64,0,0,1,42.7,83.661L33.18,78.912v1.334q0,16.457,0,32.914c0,2.982-1.12,4.1-4.095,4.1q-9.3,0-18.6,0c-2.578,0-3.788-1.2-3.789-3.75q0-7.993,0-15.987c0-.527.031-.95-.633-1.233a9.648,9.648,0,0,1-5.848-7,2.15,2.15,0,0,0-.22-.44V74.85" transform="translate(0 -23.625)" fill="#fff"/>
      </g>
    </g>
  </g>
</svg>
