<svg xmlns="http://www.w3.org/2000/svg" xmlns:xlink="http://www.w3.org/1999/xlink" width="142" height="142" viewBox="0 0 142 142">
  <defs>
    <clipPath id="clip-path">
      <rect id="Rectangle_15" data-name="Rectangle 15" width="107.267" height="91.346" fill="#fff"/>
    </clipPath>
  </defs>
  <g id="Group_149" data-name="Group 149" transform="translate(0.225)">
    <circle id="Ellipse_20" data-name="Ellipse 20" cx="71" cy="71" r="71" transform="translate(-0.225)" fill="#6768ab"/>
    <g id="Group_144" data-name="Group 144" transform="translate(17.255 28.875)">
      <g id="Group_143" data-name="Group 143" clip-path="url(#clip-path)">
        <path id="Path_478" data-name="Path 478" d="M0,1.685A2.879,2.879,0,0,1,2.951,0Q53.641.037,104.33.02c2.187,0,2.936.758,2.936,2.966q0,35.5,0,71.008c0,2.213-.737,2.965-2.941,2.966q-14.924.006-29.848,0H73.16v9.793c1.66,0,3.323,0,4.986,0,1.727.005,2.74.872,2.724,2.323-.015,1.406-1.019,2.266-2.681,2.266q-24.559,0-49.118,0c-1.66,0-2.671-.859-2.689-2.258-.02-1.457.986-2.327,2.712-2.331,2.053-.005,4.105,0,6.222,0V76.961H34.04c-10.264,0-20.527-.02-30.791.023A3.322,3.322,0,0,1,0,75.433Zm102.642,3H4.663v67.58h97.979Z" transform="translate(0 0)" fill="#fff"/>
        <path id="Path_479" data-name="Path 479" d="M72.093,86.027H29.877c-2.218,0-3.02-.8-3.021-3.019q0-27.236,0-54.472c0-2.233.791-3.031,3-3.031H114.5c2.228,0,3.029.795,3.029,3.014q0,27.236,0,54.472c0,2.221-.809,3.035-3.013,3.036H72.093M98.745,63c2.325-1.233,4.318-2.308,6.329-3.348a2.479,2.479,0,0,0,1.673-2.408,2.407,2.407,0,0,0-1.945-2.181q-13.512-4.7-27.021-9.406a2.345,2.345,0,0,0-2.624.421,2.389,2.389,0,0,0-.464,2.714c.535,1.509,1.058,3.023,1.584,4.535q3.894,11.195,7.787,22.39c.518,1.489,1.223,2.064,2.428,2.021a2.375,2.375,0,0,0,2.092-1.5c1.088-2.085,2.192-4.162,3.436-6.519,1.553,1.626,2.943,3.14,4.4,4.588a2.209,2.209,0,0,0,3.488-.017c1.078-1.045,2.131-2.115,3.188-3.181,1.42-1.432,1.45-2.538.03-3.946-1.384-1.373-2.824-2.691-4.38-4.167M78.716,33.654a2.145,2.145,0,0,0-2.251,2.331,53.985,53.985,0,0,0,1.055,5.74,2.146,2.146,0,0,0,2.514,1.536,2.253,2.253,0,0,0,1.8-2.555c-.279-1.752-.608-3.5-.97-5.234a2.267,2.267,0,0,0-2.152-1.817M65.445,47.412c-1.6-.035-2.531.732-2.729,1.919a2.25,2.25,0,0,0,1.735,2.5q2.594.559,5.222.963a2.222,2.222,0,0,0,1.013-4.323c-1.85-.456-3.736-.763-5.24-1.061m2.123-11.25a9.231,9.231,0,0,0-1.847,1.587,1.941,1.941,0,0,0,.357,2.5c1.051,1.117,2.137,2.2,3.246,3.264a2.26,2.26,0,1,0,3.165-3.21c-.989-1.033-1.983-2.065-3.042-3.024a11.748,11.748,0,0,0-1.879-1.115" transform="translate(-18.668 -17.728)" fill="#fff"/>
        <path id="Path_480" data-name="Path 480" d="M202.459,110.34l18.465,6.438c-1.525.814-2.846,1.53-4.176,2.226-2.192,1.146-2.422,2.592-.68,4.358q2.24,2.272,4.48,4.544a3.841,3.841,0,0,1,.262.54c-.524-.141-.887-.13-1.07-.305-1.46-1.4-2.883-2.838-4.325-4.256-1.661-1.633-3.149-1.4-4.244.659-.717,1.349-1.43,2.7-2.267,4.284l-6.444-18.488" transform="translate(-140.732 -76.699)" fill="#fff"/>
      </g>
    </g>
  </g>
</svg>
