<svg xmlns="http://www.w3.org/2000/svg" xmlns:xlink="http://www.w3.org/1999/xlink" width="142" height="142" viewBox="0 0 142 142">
  <defs>
    <clipPath id="clip-path">
      <circle id="Ellipse_23" data-name="Ellipse 23" cx="71" cy="71" r="71" transform="translate(-0.236)" fill="#6768ab"/>
    </clipPath>
    <clipPath id="clip-path-2">
      <rect id="Rectangle_14" data-name="Rectangle 14" width="90.137" height="113.118" fill="#fff"/>
    </clipPath>
  </defs>
  <g id="Group_148" data-name="Group 148" transform="translate(0.236)">
    <circle id="Ellipse_19" data-name="Ellipse 19" cx="71" cy="71" r="71" transform="translate(-0.236)" fill="#6768ab"/>
    <g id="Mask_Group_2" data-name="Mask Group 2" transform="translate(0)" clip-path="url(#clip-path)">
      <g id="Group_142" data-name="Group 142" transform="translate(28.923 18.605)">
        <g id="Group_141" data-name="Group 141" clip-path="url(#clip-path-2)">
          <path id="Path_475" data-name="Path 475" d="M6.183,0h65.4c.083.066.157.163.251.193,3.983,1.249,5.93,3.859,5.93,7.975q0,16.952,0,33.9V43.33c-.358-.066-.61-.1-.855-.159A26.185,26.185,0,0,0,65.1,42.948c-16.315,3.522-26.53,22.525-17.7,38.6a2.712,2.712,0,0,1,.313,1.245c.018,4.381.005,8.761,0,13.142,0,.393,0,.787,0,1.237-.326.017-.539.038-.752.038q-19.768,0-39.536-.011A7.586,7.586,0,0,1,.006,89.56q-.013-40.972,0-81.944A7.607,7.607,0,0,1,5.087.439c.37-.134.731-.293,1.1-.439M36.22,17.671q-7.336,0-14.673,0A3.605,3.605,0,0,0,17.908,20c-.869,2.419.862,4.73,3.6,4.739,6.031.021,12.062.007,18.093.007,3.788,0,7.576.009,11.363,0a3.634,3.634,0,0,0,3.57-2.28A3.536,3.536,0,0,0,51,17.679c-4.928-.024-9.856-.007-14.783-.007m.011,14.14c-4.934,0-9.869-.014-14.8.006a3.533,3.533,0,1,0-.112,7.058q14.913.037,29.827.005a3.437,3.437,0,0,0,2.875-1.389,3.286,3.286,0,0,0,.4-3.628,3.5,3.5,0,0,0-3.384-2.049q-7.4-.016-14.8,0M30.055,53.03c2.83,0,5.66.013,8.49,0a3.548,3.548,0,1,0,.032-7.069q-8.545-.019-17.09.011a4.683,4.683,0,0,0-1.707.339,3.454,3.454,0,0,0-2.044,3.766,3.568,3.568,0,0,0,3.609,2.948c2.9.032,5.807.008,8.71.01" transform="translate(0)" fill="#fff"/>
          <path id="Path_476" data-name="Path 476" d="M173.665,187.07a19.439,19.439,0,1,1,19.357,19.495,19.4,19.4,0,0,1-19.357-19.495m16.7.68c-.945-.615-1.75-1.2-2.611-1.687A3.454,3.454,0,0,0,183.1,187.2a3.417,3.417,0,0,0,.843,4.711q2.741,1.947,5.6,3.728a3.313,3.313,0,0,0,4.537-.839q3.755-5.448,7.344-11.01a3.484,3.484,0,0,0-4.981-4.632,6.17,6.17,0,0,0-1.366,1.558c-1.575,2.3-3.112,4.634-4.714,7.03" transform="translate(-122.405 -118.192)" fill="#fff"/>
          <path id="Path_477" data-name="Path 477" d="M185.5,305.773c10.629,6.92,21.147,6.938,31.764.021.016.355.042.666.042.976q0,9,0,18c0,3.22-2.745,4.832-5.559,3.252q-4.76-2.674-9.476-5.424a1.451,1.451,0,0,0-1.7-.009c-3.107,1.822-6.3,3.505-9.364,5.39a3.708,3.708,0,0,1-5.764-3.39c.19-5.884.057-11.779.057-17.67Z" transform="translate(-130.706 -215.52)" fill="#fff"/>
        </g>
      </g>
    </g>
  </g>
</svg>
