<svg xmlns="http://www.w3.org/2000/svg" xmlns:xlink="http://www.w3.org/1999/xlink" width="141" height="141" viewBox="0 0 141 141">
  <defs>
    <clipPath id="clip-path">
      <circle id="Ellipse_22" data-name="Ellipse 22" cx="70.5" cy="70.5" r="70.5" transform="translate(-0.214)" fill="#6768ab"/>
    </clipPath>
    <clipPath id="clip-path-2">
      <rect id="Rectangle_16" data-name="Rectangle 16" width="109.499" height="113.013" fill="#fff"/>
    </clipPath>
  </defs>
  <g id="Group_150" data-name="Group 150" transform="translate(0.214)">
    <circle id="Ellipse_21" data-name="Ellipse 21" cx="70.5" cy="70.5" r="70.5" transform="translate(-0.214)" fill="#6768ab"/>
    <g id="Mask_Group_1" data-name="Mask Group 1" transform="translate(0 0)" clip-path="url(#clip-path)">
      <g id="Group_146" data-name="Group 146" transform="translate(16.963 11.146)">
        <g id="Group_145" data-name="Group 145" clip-path="url(#clip-path-2)">
          <path id="Path_481" data-name="Path 481" d="M137.139,0a59.04,59.04,0,0,1,6.435,1.337c13.982,4.507,22.419,14.05,24.587,28.592A34.353,34.353,0,1,1,121.87,2.374c2.692-1.065,5.653-1.451,8.489-2.153.279-.069.555-.147.833-.221Zm-9.7,55.006a3.184,3.184,0,0,0,2.716-2.272c2.072-4.976,4.17-9.941,6.254-14.912q3.955-9.435,7.906-18.871a3.475,3.475,0,0,0-.326-3.833c-1.678-2.05-4.593-1.444-5.7,1.2q-5.112,12.171-10.2,24.355c-1.345,3.214-2.714,6.417-4.026,9.644-.962,2.367.5,4.667,3.374,4.686M124.3,20.949a4.215,4.215,0,1,0,4.169,4.368,4.3,4.3,0,0,0-4.169-4.368m19.637,19.388a4.252,4.252,0,0,0-4.38,4.006,4.386,4.386,0,0,0,4.13,4.439,4.3,4.3,0,0,0,4.292-4,4.2,4.2,0,0,0-4.041-4.443" transform="translate(-70.485)" fill="#fff"/>
          <path id="Path_482" data-name="Path 482" d="M59.454,280.231c-.014-.809-.04-1.617-.04-2.425q0-14.182,0-28.364c0-6.266,3.286-10.169,9.41-11.6a31.339,31.339,0,0,1,22.566,3.036,27.786,27.786,0,0,0,8.712,3.256,18.121,18.121,0,0,0,2.629.184c3.268.021,6.537.074,9.8-.012a3.663,3.663,0,0,1,4.015,4.087c-.227,4.547-2.56,7.821-6.619,8.746a12.056,12.056,0,0,1-2.623.221c-6.205.018-12.41-.007-18.615.031a5.391,5.391,0,0,0-2.323.484,3.169,3.169,0,0,0-1.517,3.586,3.34,3.34,0,0,0,3.046,2.457c.256.015.514.012.771.012,6.279,0,12.557-.029,18.835.014a9.111,9.111,0,0,0,6.8-2.821c4.643-4.661,9.251-9.357,13.957-13.953a15.806,15.806,0,0,1,21.822-.077c1.746,1.673,1.8,3.586.088,5.3q-11.751,11.794-23.523,23.567a14.134,14.134,0,0,1-7.881,4.07,2.338,2.338,0,0,0-.5.2Z" transform="translate(-41.927 -167.218)" fill="#fff"/>
          <path id="Path_483" data-name="Path 483" d="M2.546,305.8c-1.941-.769-2.56-2.244-2.547-4.266.056-8.045.021-16.09.024-24.135,0-3,1.215-4.209,4.2-4.211,2.189,0,4.379,0,6.7,0V305.8Z" transform="translate(0.001 -192.785)" fill="#fff"/>
        </g>
      </g>
    </g>
  </g>
</svg>
