<svg xmlns="http://www.w3.org/2000/svg" width="708.221" height="131.333" viewBox="0 0 708.221 131.333">
  <g id="Group_343" data-name="Group 343" transform="translate(-297 -198.596)">
    <g id="x" transform="translate(589.124 266.687)" opacity="0.382" style="isolation: isolate">
      <g id="Group_26" data-name="Group 26" transform="translate(0 0)" style="isolation: isolate">
        <path id="Path_178" data-name="Path 178" d="M223.2,90.273,203.584,62.914,183.452,90.273h-5.334l22.369-30.628-20.82-27.7h5.85l18.067,24.435,17.9-24.435h5.506l-20.649,27.7,22.542,30.628Z" transform="translate(-178.118 -31.941)" fill="#fff"/>
      </g>
    </g>
    <g id="Group_29" data-name="Group 29" transform="translate(719.127 207.621)">
      <g id="Group_28" data-name="Group 28" transform="translate(0 0)">
        <g id="Group_3" data-name="Group 3" transform="translate(0 0)">
          <path id="Path_1" data-name="Path 1" d="M167.886,705.855v27.093h-4.1V705.855l-9.672.064V704h23.634v1.858Z" transform="translate(-154.115 -611.3)" fill="#fff"/>
          <path id="Path_2" data-name="Path 2" d="M231.476,732.947H213.265V704h18.212v1.58H217.407V717.02h11.742v1.559H217.407v9.543q0,1.495.021,1.644a1.653,1.653,0,0,0,.748,1.345,3.49,3.49,0,0,0,1.623.256h11.678Z" transform="translate(-178.854 -611.3)" fill="#fff"/>
          <path id="Path_3" data-name="Path 3" d="M284.9,732.947H266.691V704H284.9v1.58H270.833V717.02h11.742v1.559H270.833v9.543q0,1.495.022,1.644a1.652,1.652,0,0,0,.747,1.345,3.492,3.492,0,0,0,1.623.256H284.9Z" transform="translate(-201.198 -611.3)" fill="#fff"/>
          <path id="Path_4" data-name="Path 4" d="M336.878,732.931l-9.8-13.493h-3.032v13.493h-4.078V704.194l6.384-.214a21.136,21.136,0,0,1,6.81.663,7.631,7.631,0,0,1,3.769,2.565,6.6,6.6,0,0,1,1.462,4.23q0,5.834-7.149,7.415l10.224,14.078Zm-12.831-14.859h1.2a10.476,10.476,0,0,0,5.7-1.409,5.475,5.475,0,0,0,2.647-4.953,5.928,5.928,0,0,0-1.708-4.43A6.128,6.128,0,0,0,327.4,705.6a18.807,18.807,0,0,0-3.352.407Z" transform="translate(-223.481 -611.283)" fill="#fff"/>
          <path id="Path_5" data-name="Path 5" d="M386.225,704.117h.747l13.3,28.869h-5.394l-.916-1.738q-.151-.426-1.274-3.046l-1.755-4.165h-11.2l-4.178,8.952-2.163,0Zm4.117,18.339-4.9-11.695L380.4,722.456Z" transform="translate(-245.826 -611.35)" fill="#fff"/>
          <path id="Path_6" data-name="Path 6" d="M439.37,704.221l6.461-.235a16.578,16.578,0,0,1,6.12.79,8.118,8.118,0,0,1,3.849,2.8,7.162,7.162,0,0,1,1.461,4.419,7.347,7.347,0,0,1-2.584,6,9.689,9.689,0,0,1-6.362,1.986,23.491,23.491,0,0,1-4.868-.6v13.557H439.37Zm4.078,13.941a20.315,20.315,0,0,0,3.5.427,4.9,4.9,0,0,0,3.993-1.9,6.523,6.523,0,0,0,1.452-4.27q0-4.227-2.947-5.914a6.434,6.434,0,0,0-3.2-.79,12.654,12.654,0,0,0-2.8.406Z" transform="translate(-273.419 -611.288)" fill="#fff"/>
          <path id="Path_7" data-name="Path 7" d="M497.413,702.859a12.9,12.9,0,0,1,10.035,4.527,15.2,15.2,0,0,1,3.864,10.44,15.521,15.521,0,0,1-3.928,10.718,13.967,13.967,0,0,1-20.624.086,15.655,15.655,0,0,1-3.8-10.739,14.648,14.648,0,0,1,4.7-11.251A13.857,13.857,0,0,1,497.413,702.859Zm-.405,1.559a7.639,7.639,0,0,0-6.234,2.882q-2.925,3.587-2.925,10.5,0,7.109,3.032,10.91a7.454,7.454,0,0,0,6.149,2.9A7.989,7.989,0,0,0,504.5,727.3a18.065,18.065,0,0,0,1.922-8.9,20.511,20.511,0,0,0-1.815-9.351A7.957,7.957,0,0,0,497.008,704.418Z" transform="translate(-291.65 -610.823)" fill="#fff"/>
          <path id="Path_8" data-name="Path 8" d="M567.423,732.931l-9.8-13.493h-3.032v13.493h-4.078V704.194l6.384-.214a21.135,21.135,0,0,1,6.81.663,7.63,7.63,0,0,1,3.769,2.565,6.6,6.6,0,0,1,1.462,4.23q0,5.834-7.149,7.415l10.224,14.078Zm-12.831-14.859h1.2a10.476,10.476,0,0,0,5.7-1.409,5.475,5.475,0,0,0,2.647-4.953,5.928,5.928,0,0,0-1.708-4.43,6.127,6.127,0,0,0-4.483-1.676,18.808,18.808,0,0,0-3.352.407Z" transform="translate(-319.904 -611.283)" fill="#fff"/>
          <path id="Path_9" data-name="Path 9" d="M608.526,704h2.157l17.7,21.712V704h1.878v28.994l-.772,0L610.405,710.11v22.837h-1.879Z" transform="translate(-344.167 -611.3)" fill="#fff"/>
          <path id="Path_10" data-name="Path 10" d="M414.117,550.691c-.268-1.568-1.709-2.652-4.285-3.222-5.77-1.276-19.6,1.774-25.274,3.146-10.464,2.527-20.465,5.814-24.318,7.992a28.192,28.192,0,0,0-5.664,4.263c-1.168-1.03-2.5-2.292-3.964-3.815l2.222-3.182a10.551,10.551,0,0,0,1.925-6.679,4.994,4.994,0,0,0-.135-.942c-.786-2.94-3.782-3.634-5.224-3.592h-.189c-1.489-.034-4.468.652-5.253,3.592a4.884,4.884,0,0,0-.135.941,10.549,10.549,0,0,0,1.924,6.68l2.222,3.182c-1.464,1.523-2.8,2.784-3.964,3.815a28.194,28.194,0,0,0-5.664-4.263c-3.854-2.178-13.854-5.465-24.319-7.992-5.676-1.371-19.5-4.422-25.274-3.146-2.576.57-4.018,1.654-4.285,3.222-.707,4.156,7.959,9.526,10.807,11.29.644.4,1.445.95,2.372,1.587a80.339,80.339,0,0,0,9.258,5.69c-6.979,4.217-7.787,6.558-7.748,7.978a3.186,3.186,0,0,0,1.185,2.42c1.366,1.136,3.741,1.419,5.768,1.419a25.038,25.038,0,0,0,3.621-.271c3.363-.357,31.29-3.532,37.4-10.972.469.713.817,1.3,1.04,1.7l-.078.242c-.074.239-.159.492-.25.767-.9,2.716-2.574,7.772-2.428,20.724.006.782.159,19.257,2.407,28.408a1.565,1.565,0,0,0,1.528,1.2h.041a1.572,1.572,0,0,0,1.514-1.28c.884-4.567,2.062-17.847,2.255-28.125.244-12.948-1.475-18.167-2.4-20.97-.086-.262-.166-.5-.237-.73l-.1-.246c.223-.4.559-.967,1-1.645,6.078,7.453,34.046,10.632,37.365,10.984a25.475,25.475,0,0,0,3.674.276c2.031,0,4.4-.284,5.764-1.418a3.185,3.185,0,0,0,1.185-2.419c.04-1.424-.771-3.772-7.8-8.009a80.087,80.087,0,0,0,9.322-5.723c.927-.638,1.728-1.188,2.371-1.587C406.158,560.217,414.824,554.846,414.117,550.691Zm-66.708,4.022a8.516,8.516,0,0,1-1.564-5.389,3.055,3.055,0,0,1,.07-.549c.54-2.02,2.9-2.09,3.233-2.09h.282c.023,0,2.664-.052,3.237,2.089a3.017,3.017,0,0,1,.07.55,8.517,8.517,0,0,1-1.564,5.389l-1.883,2.7ZM298.792,561.9c-.948-.652-1.767-1.215-2.452-1.639-7.635-4.731-10.108-7.87-9.877-9.229.151-.887,1.772-1.372,2.724-1.583a14.528,14.528,0,0,1,3.033-.258c4.623,0,12.218,1.194,21.328,3.394,10.3,2.488,20.088,5.69,23.8,7.786.647.366,1.255.764,1.846,1.173a33.753,33.753,0,0,0-21.421,2.13c-.044.019-4.367,1.905-8.747,4.353A71.97,71.97,0,0,1,298.792,561.9Zm43.2,2.66a26.887,26.887,0,0,1-3.193,2.255l-.062.037c-10.136,6.455-19.738,5.27-27.418,2.177,2.078-1.117,4.489-2.291,7.256-3.494C329.734,560.763,338.7,563.281,341.991,564.558ZM309.465,578.8c-2.275.356-6.412.482-7.83-.7a1.155,1.155,0,0,1-.456-.918c-.031-1.145,2.461-3.709,7.884-6.89,8.333,3.738,19.144,5.651,30.733-1.714a29.786,29.786,0,0,0,4.078-2.924c.775.845,1.444,1.671,2.024,2.44C342.444,574.046,318.654,577.818,309.465,578.8Zm41.667,14.634a254.273,254.273,0,0,1-1.839,25.41c-1.721-9.5-1.853-25.413-1.854-25.591-.121-10.687.969-15.669,1.866-18.636C350.2,577.606,351.331,582.831,351.132,593.43Zm-1.84-23.987a34.451,34.451,0,0,0-3.867-5.117c1.149-1.02,2.446-2.25,3.867-3.722,1.421,1.472,2.717,2.7,3.867,3.722A34.484,34.484,0,0,0,349.291,569.443Zm48.1,7.8a1.152,1.152,0,0,1-.455.917c-1.415,1.177-5.554,1.053-7.88.692-9.156-.972-33.005-4.755-36.4-10.727.585-.78,1.264-1.618,2.05-2.475a29.82,29.82,0,0,0,4.079,2.926c11.556,7.345,22.34,5.462,30.664,1.744C394.913,573.516,397.422,576.094,397.39,577.243ZM356.64,564.6c3.343-1.285,12.265-3.741,23.35,1,2.743,1.191,5.136,2.355,7.2,3.463-7.668,3.071-17.241,4.226-27.345-2.207l-.061-.036A26.476,26.476,0,0,1,356.64,564.6Zm45.6-4.337c-.685.424-1.5.987-2.452,1.639a71.759,71.759,0,0,1-10.3,6.161c-4.36-2.434-8.647-4.3-8.7-4.326a33.714,33.714,0,0,0-21.531-2.1c.629-.443,1.28-.873,1.976-1.265,3.709-2.1,13.494-5.3,23.8-7.786,11.536-2.786,20.642-3.96,24.361-3.136.952.211,2.573.7,2.724,1.583C412.351,552.39,409.878,555.528,402.243,560.26Z" transform="translate(-208.615 -544.658)" fill="#fff"/>
        </g>
      </g>
    </g>
    <g id="Group_34" data-name="Group 34" transform="translate(297 198.596)">
      <g id="Group_30" data-name="Group 30" transform="translate(36.857)">
        <path id="Path_179" data-name="Path 179" d="M180.525,32.275a8.132,8.132,0,1,1-1.1-11.45A8.135,8.135,0,0,1,180.525,32.275Z" transform="translate(-111.256 -8.494)" fill="#fff"/>
        <path id="Path_180" data-name="Path 180" d="M77.938,21s44.477-7.647,65.89,35.433L144.4,58.3S114.038,58.744,77.938,21Z" transform="translate(-71.762 -9.171)" fill="#fff"/>
        <path id="Path_181" data-name="Path 181" d="M146.44,70.383a22.213,22.213,0,0,0,12.037-10.777c4.769-9.8,2.154-21.749-.781-29.857-.229-.379-.457-.754-.7-1.128.8,16.027-4.533,28.282-15.98,32.536-20.426,7.6-52.905-12.993-74.266-46.423.836,1.546,1.69,3.1,2.606,4.649C90.585,55.483,125.1,78.324,146.44,70.383Z" transform="translate(-66.753 -6.599)" fill="#fff"/>
        <path id="Path_182" data-name="Path 182" d="M206.8,0s-15.014,10.526-9.527,49.129C197.277,49.129,216.8,30.156,206.8,0Z" transform="translate(-124.669)" fill="#fff"/>
      </g>
      <g id="Group_33" data-name="Group 33" transform="translate(0 80.652)">
        <g id="Group_31" data-name="Group 31" transform="translate(0.87 35.377)">
          <path id="Path_183" data-name="Path 183" d="M2.741,222H1.575V210.144H2.741Z" transform="translate(-1.575 -210.144)" fill="#fff"/>
          <path id="Path_184" data-name="Path 184" d="M15.477,224.318H14.311v-4.652a3.545,3.545,0,0,0-.506-2.1,2.7,2.7,0,0,0-2.305-1.136A2.517,2.517,0,0,0,9.335,217.5a3.833,3.833,0,0,0-.454,2.162v4.652H7.71V215.5H8.881v1.309a3.125,3.125,0,0,1,2.71-1.486,3.815,3.815,0,0,1,3.094,1.476,4.481,4.481,0,0,1,.792,2.892Z" transform="translate(-4.323 -212.463)" fill="#fff"/>
          <path id="Path_185" data-name="Path 185" d="M29.844,221.712a2.736,2.736,0,0,1-.81,2.048,2.826,2.826,0,0,1-2.068.793,2.452,2.452,0,0,1-1.893-.85,2.857,2.857,0,0,1-.781-1.986h1.2a1.755,1.755,0,0,0,.467,1.219,1.5,1.5,0,0,0,1.16.507,1.541,1.541,0,0,0,1.109-.418,1.429,1.429,0,0,0,.441-1.083,1.411,1.411,0,0,0-.519-1.151,3.832,3.832,0,0,0-1.194-.523,7.389,7.389,0,0,1-.851-.3,2.182,2.182,0,0,1-1.272-1.247,2.326,2.326,0,0,1-.194-.919,2.359,2.359,0,0,1,.737-1.774,2.488,2.488,0,0,1,1.793-.706,2.355,2.355,0,0,1,1.708.7A2.26,2.26,0,0,1,29.6,217.7H28.417c0-.848-.46-1.268-1.379-1.268a1.233,1.233,0,0,0-1.225,1.232,1.152,1.152,0,0,0,.475,1.007,3.487,3.487,0,0,0,1.069.446,4.791,4.791,0,0,1,1.732.855A2.2,2.2,0,0,1,29.844,221.712Z" transform="translate(-11.749 -212.463)" fill="#fff"/>
          <path id="Path_186" data-name="Path 186" d="M45.965,219.949a4.348,4.348,0,0,1-1.4,3.279,4.693,4.693,0,0,1-3.354,1.326,3.352,3.352,0,0,1-3.31-1.868v4.731H36.737V215.525h1.108v1.5a3.765,3.765,0,0,1,3.5-1.706,5.024,5.024,0,0,1,3.6,1.7A4.02,4.02,0,0,1,45.965,219.949Zm-1.168,0a3.439,3.439,0,0,0-1-2.488,3.264,3.264,0,0,0-2.437-1.026,3.5,3.5,0,0,0-2.49.963,3.213,3.213,0,0,0-1.025,2.454,3.449,3.449,0,0,0,.94,2.48,3.331,3.331,0,0,0,2.481,1.111,3.451,3.451,0,0,0,2.508-1A3.344,3.344,0,0,0,44.8,219.949Z" transform="translate(-17.323 -212.463)" fill="#fff"/>
          <path id="Path_187" data-name="Path 187" d="M57.725,212.19H56.557v-2.046h1.168Zm0,9.809H56.557v-8.818h1.168Z" transform="translate(-26.199 -210.144)" fill="#fff"/>
          <path id="Path_188" data-name="Path 188" d="M66.061,216.5a2.462,2.462,0,0,0-1.591.615,2.8,2.8,0,0,0-.919,2.292v4.911H62.383V215.5h1.168v1.309a2.428,2.428,0,0,1,2.51-1.486Z" transform="translate(-28.808 -212.463)" fill="#fff"/>
          <path id="Path_189" data-name="Path 189" d="M79.914,224.318H78.746V222.66a3.554,3.554,0,0,1-3.388,1.894,4.972,4.972,0,0,1-3.87-1.886,4.148,4.148,0,0,1-.859-2.815,3.717,3.717,0,0,1,.922-2.675,5.22,5.22,0,0,1,3.777-1.855,3.536,3.536,0,0,1,3.419,1.86V215.5h1.168Zm-1.168-4.325a3.554,3.554,0,0,0-.971-2.532,3.228,3.228,0,0,0-2.459-1.026,3.488,3.488,0,0,0-3.52,3.514,3.3,3.3,0,0,0,1.057,2.477,3.485,3.485,0,0,0,2.5,1.018,3.244,3.244,0,0,0,2.385-1.025A3.337,3.337,0,0,0,78.746,219.993Z" transform="translate(-32.501 -212.463)" fill="#fff"/>
          <path id="Path_190" data-name="Path 190" d="M94.634,214.291h-2.1V222H91.364v-7.708H89.552v-1.11h1.812v-3.037h1.168v3.037h2.1Z" transform="translate(-40.976 -210.144)" fill="#fff"/>
          <path id="Path_191" data-name="Path 191" d="M102.088,212.19H100.92v-2.046h1.168Zm0,9.809H100.92v-8.818h1.168Z" transform="translate(-46.068 -210.144)" fill="#fff"/>
          <path id="Path_192" data-name="Path 192" d="M115.276,219.853a4.626,4.626,0,0,1-1.321,3.307,4.273,4.273,0,0,1-3.234,1.394,4.472,4.472,0,0,1-3.253-1.334,4.355,4.355,0,0,1-1.363-3.227,4.542,4.542,0,0,1,1.339-3.307,4.554,4.554,0,0,1,6.479-.018A4.341,4.341,0,0,1,115.276,219.853Zm-1.168,0a3.316,3.316,0,0,0-1-2.41,3.375,3.375,0,0,0-4.841.031,3.526,3.526,0,0,0-.992,2.519,3.43,3.43,0,0,0,3.444,3.451,3.15,3.15,0,0,0,2.427-1.056A3.631,3.631,0,0,0,114.108,219.853Z" transform="translate(-48.39 -212.463)" fill="#fff"/>
          <path id="Path_193" data-name="Path 193" d="M133.6,224.318h-1.168v-4.652a3.584,3.584,0,0,0-.5-2.1,2.71,2.71,0,0,0-2.308-1.136,2.515,2.515,0,0,0-2.165,1.069,3.83,3.83,0,0,0-.457,2.162v4.652h-1.168V215.5H127v1.309a3.126,3.126,0,0,1,2.71-1.486A3.814,3.814,0,0,1,132.8,216.8a4.484,4.484,0,0,1,.8,2.892Z" transform="translate(-57.223 -212.463)" fill="#fff"/>
          <path id="Path_194" data-name="Path 194" d="M161.133,214.291h-2.162V222H157.8v-7.708h-1.4v-1.11h1.4q0-3.033,3.112-3.037h.218v1.065h-.218q-1.946,0-1.944,1.816v.157h2.162Z" transform="translate(-70.915 -210.144)" fill="#fff"/>
          <path id="Path_195" data-name="Path 195" d="M175.456,219.853a4.628,4.628,0,0,1-1.321,3.307,4.269,4.269,0,0,1-3.232,1.394,4.477,4.477,0,0,1-3.255-1.334,4.35,4.35,0,0,1-1.36-3.227,4.528,4.528,0,0,1,1.337-3.307,4.553,4.553,0,0,1,6.479-.018A4.341,4.341,0,0,1,175.456,219.853Zm-1.168,0a3.305,3.305,0,0,0-1-2.41,3.378,3.378,0,0,0-4.844.031,3.535,3.535,0,0,0-.989,2.519,3.43,3.43,0,0,0,3.447,3.451,3.158,3.158,0,0,0,2.427-1.056A3.639,3.639,0,0,0,174.288,219.853Z" transform="translate(-75.343 -212.463)" fill="#fff"/>
          <path id="Path_196" data-name="Path 196" d="M189.686,216.5a2.445,2.445,0,0,0-1.589.615,2.782,2.782,0,0,0-.924,2.292v4.911h-1.168V215.5h1.168v1.309a2.43,2.43,0,0,1,2.513-1.486Z" transform="translate(-84.174 -212.463)" fill="#fff"/>
          <path id="Path_197" data-name="Path 197" d="M215.717,215.645l-5.077,11.916-1.264-.006,1.384-3.4-3.366-8.515h1.256l2.827,6.987,2.972-6.981Z" transform="translate(-93.752 -212.608)" fill="#fff"/>
          <path id="Path_198" data-name="Path 198" d="M233.107,219.853a4.628,4.628,0,0,1-1.321,3.307,4.273,4.273,0,0,1-3.232,1.394,4.478,4.478,0,0,1-3.255-1.334,4.353,4.353,0,0,1-1.363-3.227,4.539,4.539,0,0,1,1.339-3.307,4.553,4.553,0,0,1,6.479-.018A4.352,4.352,0,0,1,233.107,219.853Zm-1.168,0a3.305,3.305,0,0,0-1-2.41,3.375,3.375,0,0,0-4.841.031,3.526,3.526,0,0,0-.992,2.519,3.43,3.43,0,0,0,3.447,3.451,3.159,3.159,0,0,0,2.427-1.056A3.639,3.639,0,0,0,231.939,219.853Z" transform="translate(-101.161 -212.463)" fill="#fff"/>
          <path id="Path_199" data-name="Path 199" d="M251.368,224.463H250.2v-1.377a2.932,2.932,0,0,1-2.892,1.612,3.991,3.991,0,0,1-3.061-1.6,4.558,4.558,0,0,1-.589-2.777v-4.674h1.168v4.7a3.913,3.913,0,0,0,.391,1.944,2.485,2.485,0,0,0,2.279,1.3,2.539,2.539,0,0,0,2.168-1.106,3.642,3.642,0,0,0,.534-2.135v-4.7h1.168Z" transform="translate(-109.994 -212.608)" fill="#fff"/>
          <path id="Path_200" data-name="Path 200" d="M265.03,216.5a2.461,2.461,0,0,0-1.591.615,2.794,2.794,0,0,0-.919,2.292v4.911h-1.171V215.5h1.171v1.309a2.424,2.424,0,0,1,2.51-1.486Z" transform="translate(-117.917 -212.463)" fill="#fff"/>
          <path id="Path_201" data-name="Path 201" d="M292.283,218.634a3.045,3.045,0,0,1-1.443,2.724,3.949,3.949,0,0,1-1.589.565,13.27,13.27,0,0,1-1.7.076h-2.8V210.144h2.8a5.031,5.031,0,0,1,2.739.627,2.863,2.863,0,0,1,1.355,2.518,2.717,2.717,0,0,1-1.342,2.36A2.948,2.948,0,0,1,292.283,218.634Zm-1.809-5.421a1.737,1.737,0,0,0-.906-1.605,4.106,4.106,0,0,0-1.976-.354h-1.674v3.915h1.593a4.525,4.525,0,0,0,1.991-.353A1.674,1.674,0,0,0,290.474,213.212Zm.644,5.424q0-2.153-2.419-2.359h-2.78v4.615h1.814a5.165,5.165,0,0,0,2.222-.348A2,2,0,0,0,291.117,218.636Z" transform="translate(-128.399 -210.144)" fill="#fff"/>
          <path id="Path_202" data-name="Path 202" d="M309.545,220.407h-7.987a2.765,2.765,0,0,0,1.03,2.135,3.382,3.382,0,0,0,2.29.9,3.653,3.653,0,0,0,1.895-.531,2.883,2.883,0,0,0,1.248-1.447h1.259a4.457,4.457,0,0,1-1.661,2.214,4.379,4.379,0,0,1-2.6.873,4.615,4.615,0,1,1-.031-9.231A4.376,4.376,0,0,1,307.3,216a4.579,4.579,0,0,1,1.272,1.13A5.252,5.252,0,0,1,309.545,220.407Zm-1.186-1.11a3.583,3.583,0,0,0-1.215-2.04,3.233,3.233,0,0,0-2.173-.822,3.427,3.427,0,0,0-2.225.8,3.25,3.25,0,0,0-1.189,2.058Z" transform="translate(-135.402 -212.463)" fill="#fff"/>
          <path id="Path_203" data-name="Path 203" d="M321.109,212.19h-1.171v-2.046h1.171Zm0,9.809h-1.171v-8.818h1.171Z" transform="translate(-144.157 -210.144)" fill="#fff"/>
          <path id="Path_204" data-name="Path 204" d="M333.527,224.318h-1.166v-4.652a3.544,3.544,0,0,0-.508-2.1,2.7,2.7,0,0,0-2.305-1.136,2.518,2.518,0,0,0-2.162,1.069,3.806,3.806,0,0,0-.457,2.162v4.652h-1.171V215.5h1.171v1.309a3.129,3.129,0,0,1,2.708-1.486,3.817,3.817,0,0,1,3.1,1.476,4.5,4.5,0,0,1,.792,2.892Z" transform="translate(-146.763 -212.463)" fill="#fff"/>
          <path id="Path_205" data-name="Path 205" d="M352.1,223.073a8.074,8.074,0,0,1-.14,1.761,3.712,3.712,0,0,1-2.443,2.57,5.234,5.234,0,0,1-1.911.364,4.526,4.526,0,0,1-2.725-.891,4.061,4.061,0,0,1-1.581-2.323h1.152a3.529,3.529,0,0,0,3.224,2.1,3.018,3.018,0,0,0,2.866-1.546,4.379,4.379,0,0,0,.389-2.044v-.484a3.326,3.326,0,0,1-3.413,1.973,4.445,4.445,0,0,1-3.152-1.311,4.35,4.35,0,0,1-1.378-3.294,4.172,4.172,0,0,1,.825-2.734,4.571,4.571,0,0,1,3.644-1.892,3.607,3.607,0,0,1,3.474,1.895v-1.693H352.1Zm-1.168-3.155a3.37,3.37,0,0,0-1-2.491,3.411,3.411,0,0,0-2.495-.992,3.094,3.094,0,0,0-2.321.992,3.319,3.319,0,0,0-.958,2.394,3.7,3.7,0,0,0,.943,2.575,3.111,3.111,0,0,0,2.429,1.049,3.165,3.165,0,0,0,2.4-1.018A3.572,3.572,0,0,0,350.927,219.917Z" transform="translate(-154.478 -212.463)" fill="#fff"/>
        </g>
        <g id="Group_32" data-name="Group 32">
          <path id="Path_206" data-name="Path 206" d="M.935,162.019a11.645,11.645,0,0,0,5.093,1.265c2.112,0,3.226-.873,3.226-2.228,0-1.238-.963-1.992-3.408-2.836-3.375-1.2-5.6-3.074-5.6-6.06,0-3.467,2.923-6.088,7.686-6.088a11.851,11.851,0,0,1,5.184,1.023l-1.023,3.678a9.537,9.537,0,0,0-4.221-.966c-1.991,0-2.954.935-2.954,1.96,0,1.3,1.114,1.871,3.766,2.894,3.591,1.326,5.249,3.2,5.249,6.091,0,3.41-2.593,6.3-8.172,6.3A13.3,13.3,0,0,1,0,165.79Z" transform="translate(0 -146.072)" fill="#fff"/>
          <path id="Path_207" data-name="Path 207" d="M35.489,146.669v11.666c0,3.528,1.357,5.307,3.681,5.307,2.406,0,3.738-1.688,3.738-5.307V146.669h4.579v11.4c0,6.269-3.164,9.254-8.467,9.254-5.129,0-8.112-2.864-8.112-9.314v-11.34Z" transform="translate(-13.842 -146.339)" fill="#fff"/>
          <path id="Path_208" data-name="Path 208" d="M82.278,166.179a13.431,13.431,0,0,1-5.186.876c-7.024,0-10.643-4.406-10.643-10.222,0-6.936,4.945-10.761,11.095-10.761a12,12,0,0,1,5,.9l-.963,3.618a9.684,9.684,0,0,0-3.857-.756c-3.619,0-6.453,2.2-6.453,6.757,0,4.07,2.414,6.635,6.482,6.635a10.953,10.953,0,0,0,3.86-.664Z" transform="translate(-29.76 -146.072)" fill="#fff"/>
          <path id="Path_209" data-name="Path 209" d="M113.08,166.179a13.451,13.451,0,0,1-5.186.876c-7.027,0-10.645-4.406-10.645-10.222,0-6.936,4.948-10.761,11.1-10.761a11.99,11.99,0,0,1,5,.9l-.963,3.618a9.688,9.688,0,0,0-3.86-.756c-3.616,0-6.451,2.2-6.451,6.757,0,4.07,2.411,6.635,6.484,6.635a10.921,10.921,0,0,0,3.854-.664Z" transform="translate(-43.553 -146.072)" fill="#fff"/>
          <path id="Path_210" data-name="Path 210" d="M143.546,158.4h-7.479v4.827h8.351v3.768H131.483V146.669H144v3.767h-7.93v4.221h7.479Z" transform="translate(-58.886 -146.339)" fill="#fff"/>
          <path id="Path_211" data-name="Path 211" d="M160.107,162.019a11.645,11.645,0,0,0,5.093,1.265c2.11,0,3.227-.873,3.227-2.228,0-1.238-.963-1.992-3.408-2.836-3.372-1.2-5.6-3.074-5.6-6.06,0-3.467,2.923-6.088,7.686-6.088a11.874,11.874,0,0,1,5.187,1.023l-1.025,3.678a9.54,9.54,0,0,0-4.221-.966c-1.991,0-2.954.935-2.954,1.96,0,1.3,1.114,1.871,3.769,2.894,3.588,1.326,5.246,3.2,5.246,6.091,0,3.41-2.593,6.3-8.172,6.3a13.311,13.311,0,0,1-5.76-1.266Z" transform="translate(-71.285 -146.072)" fill="#fff"/>
          <path id="Path_212" data-name="Path 212" d="M189.6,162.019a11.648,11.648,0,0,0,5.1,1.265c2.108,0,3.226-.873,3.226-2.228,0-1.238-.965-1.992-3.408-2.836-3.38-1.2-5.606-3.074-5.606-6.06,0-3.467,2.922-6.088,7.686-6.088a11.881,11.881,0,0,1,5.187,1.023l-1.025,3.678a9.561,9.561,0,0,0-4.221-.966c-1.991,0-2.954.935-2.954,1.96,0,1.3,1.116,1.871,3.767,2.894,3.587,1.326,5.249,3.2,5.249,6.091,0,3.41-2.6,6.3-8.172,6.3a13.3,13.3,0,0,1-5.758-1.266Z" transform="translate(-84.494 -146.072)" fill="#fff"/>
          <path id="Path_213" data-name="Path 213" d="M236.384,159.209c-.091-2.444-.179-5.364-.179-8.349h-.06c-.662,2.6-1.506,5.489-2.292,7.868l-2.471,7.93h-3.587l-2.173-7.838c-.662-2.413-1.327-5.275-1.838-7.96h-.06c-.091,2.742-.213,5.88-.335,8.412L223,166.991H218.75l1.293-20.322h6.124l1.988,6.813c.662,2.321,1.264,4.853,1.716,7.24h.122c.545-2.354,1.238-5.007,1.931-7.3l2.139-6.755h6.03l1.088,20.322h-4.462Z" transform="translate(-97.969 -146.339)" fill="#fff"/>
          <path id="Path_214" data-name="Path 214" d="M273.629,167.055c-6,0-9.558-4.554-9.558-10.343,0-6.088,3.917-10.64,9.888-10.64,6.242,0,9.649,4.67,9.649,10.279,0,6.694-4.011,10.7-9.952,10.7Zm.21-3.647c3.1,0,4.885-2.926,4.885-6.91,0-3.645-1.723-6.779-4.885-6.779s-4.947,3.074-4.947,6.874c0,3.83,1.84,6.815,4.916,6.815Z" transform="translate(-118.267 -146.072)" fill="#fff"/>
          <path id="Path_215" data-name="Path 215" d="M304.912,146.852a35.914,35.914,0,0,1,6.121-.453c3.016,0,5.124.453,6.573,1.625a5.1,5.1,0,0,1,1.9,4.25,5.385,5.385,0,0,1-3.584,4.978v.088c1.415.576,2.2,1.9,2.713,3.77.631,2.321,1.236,4.974,1.628,5.759h-4.7a26.168,26.168,0,0,1-1.386-4.731c-.574-2.566-1.448-3.23-3.346-3.259h-1.358v7.99h-4.553Zm4.553,8.712h1.809c2.295,0,3.647-1.145,3.647-2.924,0-1.839-1.267-2.8-3.377-2.8a9.559,9.559,0,0,0-2.079.145Z" transform="translate(-136.558 -146.218)" fill="#fff"/>
          <path id="Path_216" data-name="Path 216" d="M349.412,158.4h-7.478v4.827h8.351v3.768H337.352V146.669h12.512v3.767h-7.93v4.221h7.478Z" transform="translate(-151.086 -146.339)" fill="#fff"/>
        </g>
      </g>
    </g>
  </g>
</svg>
