<svg xmlns="http://www.w3.org/2000/svg" width="86.841" height="62.531" viewBox="0 0 86.841 62.531">
  <path id="Path_1344" data-name="Path 1344" d="M60.35-80.963A17.087,17.087,0,0,0,43.255-98.057a17.4,17.4,0,0,0-7.648,1.8c0-10.8,6.748-18.894,19.794-23.843l-6.3-6.3c-17.995,7.648-26.542,20.694-26.092,40.038.45,14.846,7.2,22.493,20.244,22.493A17.087,17.087,0,0,0,60.35-80.963Zm-49.485,0A17.087,17.087,0,0,0-6.23-98.057a19.145,19.145,0,0,0-7.648,1.8c0-10.8,6.748-18.894,19.794-23.843l-6.3-6.3c-17.995,7.648-26.542,20.694-26.092,40.038.45,14.846,7.2,22.493,20.244,22.493A17.087,17.087,0,0,0,10.864-80.963Z" transform="translate(26.491 126.399)" fill="#fff" opacity="0.363"/>
</svg>
