<svg xmlns="http://www.w3.org/2000/svg" width="126.761" height="91.277" viewBox="0 0 126.761 91.277">
  <path id="Path_1345" data-name="Path 1345" d="M100.529-93.566c-.657-21.67-10.507-32.833-29.55-32.833a24.942,24.942,0,0,0-24.953,24.953A24.942,24.942,0,0,0,70.979-76.492c4.6,0,7.88-1.313,11.163-2.627,0,15.76-9.85,27.58-28.893,34.8l9.193,9.193C88.709-46.286,101.186-65.986,100.529-93.566Zm-72.233,0c-.657-21.67-10.507-32.833-29.55-32.833a24.942,24.942,0,0,0-24.953,24.953A24.942,24.942,0,0,0-1.255-76.492,25.394,25.394,0,0,0,9.909-79.119c0,15.76-9.85,27.58-28.893,34.8l9.193,9.193C17.132-46.286,28.952-65.986,28.3-93.566Z" transform="translate(26.208 126.399)" fill="#fff" opacity="0.284"/>
</svg>
